<svg width="42" height="39" viewBox="0 0 42 39" fill="none" xmlns="http://www.w3.org/2000/svg">
<ellipse cx="21" cy="19.5" rx="21" ry="19.5" fill="white"/>
<path d="M30.9333 13.0172C31.0875 12.4312 30.9333 12 30.1917 12H27.7375C27.1125 12 26.825 12.3703 26.6708 12.7828C26.6708 12.7828 25.4208 16.2094 23.6542 18.4312C23.0833 19.0734 22.8208 19.2797 22.5083 19.2797C22.3542 19.2797 22.1167 19.0734 22.1167 18.4875V13.0172C22.1167 12.3141 21.9417 12 21.425 12H17.5667C17.175 12 16.9417 12.3281 16.9417 12.6328C16.9417 13.2984 17.825 13.4531 17.9167 15.3281V19.3969C17.9167 20.2875 17.775 20.4516 17.4625 20.4516C16.6292 20.4516 14.6042 17.0109 13.4042 13.0734C13.1625 12.3094 12.925 12 12.2958 12H9.84167C9.14167 12 9 12.3703 9 12.7828C9 13.5141 9.83333 17.1469 12.8792 21.9469C14.9083 25.2234 17.7667 27 20.3667 27C21.9292 27 22.1208 26.6063 22.1208 25.9266C22.1208 22.7953 21.9792 22.5 22.7625 22.5C23.125 22.5 23.75 22.7063 25.2083 24.2859C26.875 26.1609 27.15 27 28.0833 27H30.5375C31.2375 27 31.5917 26.6062 31.3875 25.8281C30.9208 24.1922 27.7667 20.8266 27.625 20.6016C27.2625 20.0766 27.3667 19.8422 27.625 19.3734C27.6292 19.3688 30.625 14.625 30.9333 13.0172Z" fill="#33CCFF"/>
</svg>
